<svg id="visual" viewBox="0 0 900 675" width="900" height="675" xmlns="http://www.w3.org/2000/svg" xmlns:xlink="http://www.w3.org/1999/xlink" version="1.1"><rect x="0" y="0" width="900" height="675" fill="#FFFFFF"></rect><path d="M0 465L30 473.5C60 482 120 499 180 476.5C240 454 300 392 360 364.3C420 336.7 480 343.3 540 359.7C600 376 660 402 720 421.7C780 441.3 840 454.7 870 461.3L900 468L900 676L870 676C840 676 780 676 720 676C660 676 600 676 540 676C480 676 420 676 360 676C300 676 240 676 180 676C120 676 60 676 30 676L0 676Z" fill="#26ad55" stroke-linecap="round" stroke-linejoin="miter"></path></svg>