<svg id="visual" viewBox="0 0 600 900" width="600" height="auto" xmlns="http://www.w3.org/2000/svg" xmlns:xlink="http://www.w3.org/1999/xlink" version="1.1"><rect x="0" y="0" width="600" height="900" fill="#FFFFFF"></rect><path d="M372 900L350.3 870C328.7 840 285.3 780 297 720C308.7 660 375.3 600 383.3 540C391.3 480 340.7 420 307.5 360C274.3 300 258.7 240 275.3 180C292 120 341 60 365.5 30L390 0L600 0L600 30C600 60 600 120 600 180C600 240 600 300 600 360C600 420 600 480 600 540C600 600 600 660 600 720C600 780 600 840 600 870L600 900Z" fill="#26ad55" stroke-linecap="round" stroke-linejoin="miter"></path></svg>